<svg version="1.1" id="Layer_1" xmlns="http://www.w3.org/2000/svg" xmlns:xlink="http://www.w3.org/1999/xlink" x="0px" y="0px"
	 width="100%" viewBox="0 0 121 118" enable-background="new 0 0 121 118" xml:space="preserve">
<path fill="#FBFDFD" opacity="1.000000" stroke="none" 
	d="
M70.000000,119.000000 
	C46.666668,119.000000 23.833334,119.000000 1.000000,119.000000 
	C1.000000,79.666664 1.000000,40.333332 1.000000,1.000000 
	C41.333332,1.000000 81.666664,1.000000 122.000000,1.000000 
	C122.000000,40.333332 122.000000,79.666664 122.000000,119.000000 
	C104.833336,119.000000 87.666664,119.000000 70.000000,119.000000 
M25.019136,36.875877 
	C27.020374,35.275051 29.021612,33.674229 31.696676,31.895452 
	C35.165611,29.945675 38.634544,27.995897 42.818203,26.021914 
	C44.551407,25.361809 46.284611,24.701704 48.862022,24.088507 
	C55.486088,24.100733 62.110157,24.112959 69.257118,24.602188 
	C72.160522,26.094814 75.063934,27.587440 78.270706,29.619474 
	C79.550156,30.841469 80.829597,32.063465 82.433273,33.940720 
	C83.607399,35.986504 84.781532,38.032291 85.990608,40.828197 
	C86.346924,42.553356 86.703232,44.278519 86.938545,46.878334 
	C86.892212,49.226532 86.845871,51.574730 86.437241,54.522186 
	C86.057335,56.350067 85.677429,58.177952 85.023895,60.668781 
	C84.472839,62.448009 83.921776,64.227234 83.003448,66.630165 
	C82.229622,68.380241 81.455795,70.130318 80.174828,72.306610 
	C78.719048,74.847061 77.263275,77.387512 75.220833,80.231934 
	C71.423912,84.138687 67.671715,88.090172 63.819801,91.941925 
	C57.758110,98.003357 51.629292,103.997673 44.792042,110.747871 
	C46.852539,111.060974 47.248985,111.253304 47.465229,111.129890 
	C48.179348,110.722321 48.830036,110.203003 49.502113,109.722450 
	C62.188931,100.650894 75.891907,94.086815 91.546959,91.898460 
	C97.051437,91.129013 101.036598,87.802528 103.009720,82.861839 
	C100.854362,81.312393 99.018082,79.992317 97.257088,77.966156 
	C98.379478,77.949219 99.510307,78.014610 100.622749,77.900597 
	C104.669037,77.485878 109.665108,79.059555 111.616997,72.515434 
	C112.127937,70.360527 112.638878,68.205627 113.682800,65.611519 
	C114.924858,63.783646 116.166916,61.955772 117.900795,59.503742 
	C117.900795,58.108341 117.900795,56.712940 117.900795,56.640144 
	C114.008743,54.648449 111.058464,53.138691 107.716225,51.114372 
	C104.474350,48.751595 101.232475,46.388817 98.023926,43.284473 
	C98.317894,41.858906 98.611862,40.433338 99.024673,38.272556 
	C96.385376,35.761223 93.746071,33.249893 90.692421,30.213654 
	C87.980759,28.719145 85.269104,27.224634 82.117119,25.204344 
	C80.860847,24.294386 79.604568,23.384426 78.082771,21.665440 
	C76.050392,21.120426 74.018005,20.575411 71.956573,19.347095 
	C72.352806,18.297707 72.749031,17.248318 73.660248,15.631150 
	C75.029106,10.749298 72.189102,9.362417 68.143921,9.056301 
	C60.640121,8.488458 58.530170,9.762029 57.838322,15.670734 
	C56.224369,16.168211 54.610413,16.665688 52.241951,17.127464 
	C49.162521,18.120527 46.083096,19.113590 42.352097,20.179285 
	C40.848808,20.982540 39.345520,21.785795 37.153770,22.794437 
	C34.218941,24.741179 31.284111,26.687918 27.794535,28.916563 
	C25.796869,30.737604 23.799204,32.558647 21.187819,34.728901 
	C19.117558,37.149937 17.047297,39.570972 14.380316,42.331169 
	C12.320847,45.894695 10.261377,49.458218 7.843204,53.687725 
	C7.290783,58.129528 6.738363,62.571335 6.159581,67.745682 
	C9.468885,77.806831 19.113970,85.448425 29.203844,86.003151 
	C41.570267,86.683022 53.563457,80.111275 58.753078,69.890831 
	C61.294033,68.049095 63.834988,66.207367 66.375938,64.365631 
	C62.946178,64.758392 58.803314,63.109455 56.267757,68.054932 
	C53.374580,70.963982 50.692532,74.127190 47.550743,76.736946 
	C35.582642,86.678368 13.906114,82.169777 10.759521,66.236465 
	C11.252865,61.843460 11.746210,57.450455 12.785101,52.638229 
	C14.573448,49.444553 16.361795,46.250874 18.804443,42.868252 
	C20.685247,40.966980 22.566051,39.065704 25.019136,36.875877 
M69.117653,33.010075 
	C65.013100,27.797560 59.392517,26.023932 53.304321,27.793587 
	C49.118950,29.010149 44.703232,29.577404 40.683548,31.173141 
	C37.749836,32.337772 35.163898,34.545139 32.656586,36.576130 
	C29.318031,39.280453 30.535824,42.678520 32.553146,45.239655 
	C34.310093,47.470222 37.093575,48.892212 39.423462,50.671486 
	C39.754555,50.248920 40.085644,49.826359 40.416733,49.403793 
	C36.837772,47.095146 33.052441,44.686516 34.953495,39.665798 
	C36.847214,34.664459 41.216244,33.906628 46.013603,33.992569 
	C47.645729,34.021805 49.509872,33.452469 50.897999,32.572788 
	C56.391998,29.091129 61.002388,29.443438 65.842125,34.670357 
	C64.196541,36.123138 62.550953,37.575920 60.905369,39.028702 
	C64.928139,38.910160 68.579948,36.597767 71.439903,37.339317 
	C74.719391,38.189648 77.296539,41.748684 80.785248,44.632233 
	C80.658714,43.077705 80.929970,41.225346 80.309891,39.746792 
	C78.305878,34.968304 74.146622,33.651955 69.117653,33.010075 
M25.945955,72.872086 
	C23.433445,70.885483 20.920935,68.898880 18.163759,66.718834 
	C18.154987,71.899788 22.200531,75.697594 28.511770,76.966011 
	C35.794014,78.429573 42.694141,75.297081 45.175529,69.308334 
	C46.318172,66.550591 47.280991,63.719669 43.562260,61.742325 
	C41.710815,72.205315 36.171574,75.859169 25.945955,72.872086 
M79.484978,48.776718 
	C79.636871,48.507267 79.788765,48.237816 79.940659,47.968361 
	C79.674889,47.825672 79.310837,47.490501 79.157806,47.568630 
	C75.885498,49.239342 72.636856,50.956398 69.112747,52.806664 
	C69.112747,55.453426 69.112747,58.493038 69.112747,61.528240 
	C72.521317,57.373119 75.835541,53.332996 79.484978,48.776718 
M20.484632,57.288509 
	C20.592405,57.804123 20.700180,58.319733 20.807955,58.835346 
	C22.387617,58.340782 23.967279,57.846222 25.546942,57.351658 
	C25.434660,56.787800 25.322376,56.223942 25.210094,55.660084 
	C23.763836,56.021980 22.317575,56.383877 20.484632,57.288509 
z"/>
<path fill="#106272" opacity="1.000000" stroke="none" 
	d="
M97.181793,78.672241 
	C99.018082,79.992317 100.854362,81.312393 103.009720,82.861839 
	C101.036598,87.802528 97.051437,91.129013 91.546959,91.898460 
	C75.891907,94.086815 62.188931,100.650894 49.502113,109.722450 
	C48.830036,110.203003 48.179348,110.722321 47.465229,111.129890 
	C47.248985,111.253304 46.852539,111.060974 44.792042,110.747871 
	C51.629292,103.997673 57.758110,98.003357 63.819801,91.941925 
	C67.671715,88.090172 71.423912,84.138687 75.995071,80.101181 
	C80.912437,79.980179 85.063728,80.151321 89.195747,79.941971 
	C91.872337,79.806343 94.520752,79.114723 97.181793,78.672241 
z"/>
<path fill="#156877" opacity="1.000000" stroke="none" 
	d="
M58.083717,70.178215 
	C53.563457,80.111275 41.570267,86.683022 29.203844,86.003151 
	C19.113970,85.448425 9.468885,77.806831 6.556804,67.376602 
	C8.234151,67.010529 9.514276,67.013527 10.794399,67.016533 
	C13.906114,82.169777 35.582642,86.678368 47.550743,76.736946 
	C50.692532,74.127190 53.374580,70.963982 56.695000,68.196503 
	C57.442734,68.951454 57.763226,69.564835 58.083717,70.178215 
z"/>
<path fill="#106675" opacity="1.000000" stroke="none" 
	d="
M97.219437,78.319199 
	C94.520752,79.114723 91.872337,79.806343 89.195747,79.941971 
	C85.063728,80.151321 80.912437,79.980179 76.288406,79.949196 
	C77.263275,77.387512 78.719048,74.847061 80.917648,72.127823 
	C91.474518,72.307846 101.288567,72.666649 111.102623,73.025444 
	C109.665108,79.059555 104.669037,77.485878 100.622749,77.900597 
	C99.510307,78.014610 98.379478,77.949219 97.219437,78.319199 
z"/>
<path fill="#1B7683" opacity="1.000000" stroke="none" 
	d="
M108.108177,51.628929 
	C111.058464,53.138691 114.008743,54.648449 117.900795,56.640144 
	C117.900795,56.712940 117.900795,58.108341 117.158455,59.779800 
	C106.043251,60.039185 95.670387,60.022507 85.297523,60.005829 
	C85.677429,58.177952 86.057335,56.350067 87.100349,54.245033 
	C93.191887,53.977886 98.627785,54.145515 104.043610,53.889206 
	C105.431015,53.823540 106.755035,52.418587 108.108177,51.628929 
z"/>
<path fill="#17717E" opacity="1.000000" stroke="none" 
	d="
M85.160706,60.337303 
	C95.670387,60.022507 106.043251,60.039185 116.912537,60.091881 
	C116.166916,61.955772 114.924858,63.783646 112.937851,65.816086 
	C102.585510,66.015923 92.978119,66.011192 83.370720,66.006462 
	C83.921776,64.227234 84.472839,62.448009 85.160706,60.337303 
z"/>
<path fill="#136B79" opacity="1.000000" stroke="none" 
	d="
M83.187088,66.318314 
	C92.978119,66.011192 102.585510,66.015923 112.671364,66.035683 
	C112.638878,68.205627 112.127937,70.360527 111.359810,72.770439 
	C101.288567,72.666649 91.474518,72.307846 81.171219,71.914719 
	C81.455795,70.130318 82.229622,68.380241 83.187088,66.318314 
z"/>
<path fill="#5AC0C3" opacity="1.000000" stroke="none" 
	d="
M66.187080,34.064995 
	C61.002388,29.443438 56.391998,29.091129 50.897999,32.572788 
	C49.509872,33.452469 47.645729,34.021805 46.013603,33.992569 
	C41.216244,33.906628 36.847214,34.664459 34.953495,39.665798 
	C33.052441,44.686516 36.837772,47.095146 40.416733,49.403793 
	C40.085644,49.826359 39.754555,50.248920 39.423462,50.671486 
	C37.093575,48.892212 34.310093,47.470222 32.553146,45.239655 
	C30.535824,42.678520 29.318031,39.280453 32.656586,36.576130 
	C35.163898,34.545139 37.749836,32.337772 40.683548,31.173141 
	C44.703232,29.577404 49.118950,29.010149 53.304321,27.793587 
	C59.392517,26.023932 65.013100,27.797560 68.846497,33.419731 
	C67.779251,33.907928 66.983162,33.986462 66.187080,34.064995 
z"/>
<path fill="#237F8B" opacity="1.000000" stroke="none" 
	d="
M107.912201,51.371651 
	C106.755035,52.418587 105.431015,53.823540 104.043610,53.889206 
	C98.627785,54.145515 93.191887,53.977886 87.281494,53.945404 
	C86.845871,51.574730 86.892212,49.226532 87.442108,46.439705 
	C91.293976,45.342731 94.642288,44.684387 97.990601,44.026039 
	C101.232475,46.388817 104.474350,48.751595 107.912201,51.371651 
z"/>
<path fill="#41ABB0" opacity="1.000000" stroke="none" 
	d="
M71.985626,20.030396 
	C74.018005,20.575411 76.050392,21.120426 77.653259,22.188961 
	C74.393913,23.183382 71.564064,23.654282 68.734222,24.125183 
	C62.110157,24.112959 55.486088,24.100733 48.240822,23.786308 
	C46.080967,22.358290 44.542316,21.232471 43.003666,20.106655 
	C46.083096,19.113590 49.162521,18.120527 52.728645,17.525801 
	C59.472103,18.626225 65.728867,19.328310 71.985626,20.030396 
z"/>
<path fill="#166574" opacity="1.000000" stroke="none" 
	d="
M26.321121,72.998535 
	C36.171574,75.859169 41.710815,72.205315 43.562260,61.742325 
	C47.280991,63.719669 46.318172,66.550591 45.175529,69.308334 
	C42.694141,75.297081 35.794014,78.429573 28.511770,76.966011 
	C22.200531,75.697594 18.154987,71.899788 18.163759,66.718834 
	C20.920935,68.898880 23.433445,70.885483 26.321121,72.998535 
z"/>
<path fill="#31929B" opacity="1.000000" stroke="none" 
	d="
M85.955658,40.078072 
	C84.781532,38.032291 83.607399,35.986504 82.728928,33.529396 
	C85.718643,32.324898 88.412712,31.531729 91.106773,30.738560 
	C93.746071,33.249893 96.385376,35.761223 98.510269,38.637230 
	C93.982460,39.360626 89.969055,39.719349 85.955658,40.078072 
z"/>
<path fill="#50BCBF" opacity="1.000000" stroke="none" 
	d="
M58.125336,15.013049 
	C58.530170,9.762029 60.640121,8.488458 68.143921,9.056301 
	C72.189102,9.362417 75.029106,10.749298 73.113373,15.591263 
	C67.752769,15.371934 62.939053,15.192492 58.125336,15.013049 
z"/>
<path fill="#288892" opacity="1.000000" stroke="none" 
	d="
M85.973129,40.453133 
	C89.969055,39.719349 93.982460,39.360626 98.450844,39.004833 
	C98.611862,40.433338 98.317894,41.858906 98.007263,43.655258 
	C94.642288,44.684387 91.293976,45.342731 87.502602,46.002377 
	C86.703232,44.278519 86.346924,42.553356 85.973129,40.453133 
z"/>
<path fill="#20A7AA" opacity="1.000000" stroke="none" 
	d="
M66.014603,34.367676 
	C66.983162,33.986462 67.779251,33.907928 68.967392,33.742027 
	C74.146622,33.651955 78.305878,34.968304 80.309891,39.746792 
	C80.929970,41.225346 80.658714,43.077705 80.785248,44.632233 
	C77.296539,41.748684 74.719391,38.189648 71.439903,37.339317 
	C68.579948,36.597767 64.928139,38.910160 60.905369,39.028702 
	C62.550953,37.575920 64.196541,36.123138 66.014603,34.367676 
z"/>
<path fill="#46B0B5" opacity="1.000000" stroke="none" 
	d="
M57.981827,15.341892 
	C62.939053,15.192492 67.752769,15.371934 72.855881,15.875154 
	C72.749031,17.248318 72.352806,18.297707 71.971100,19.688745 
	C65.728867,19.328310 59.472103,18.626225 53.105900,17.543650 
	C54.610413,16.665688 56.224369,16.168211 57.981827,15.341892 
z"/>
<path fill="#1D7582" opacity="1.000000" stroke="none" 
	d="
M10.776960,66.626495 
	C9.514276,67.013527 8.234151,67.010529 6.569985,67.010330 
	C6.738363,62.571335 7.290783,58.129528 8.426174,53.350441 
	C10.085947,53.027924 11.162751,53.042686 12.239554,53.057449 
	C11.746210,57.450455 11.252865,61.843460 10.776960,66.626495 
z"/>
<path fill="#3B9DA5" opacity="1.000000" stroke="none" 
	d="
M90.899597,30.476107 
	C88.412712,31.531729 85.718643,32.324898 82.566818,33.201767 
	C80.829597,32.063465 79.550156,30.841469 78.183815,28.985846 
	C79.583763,27.478186 81.070602,26.604155 82.557442,25.730125 
	C85.269104,27.224634 87.980759,28.719145 90.899597,30.476107 
z"/>
<path fill="#39939C" opacity="1.000000" stroke="none" 
	d="
M79.317375,49.034798 
	C75.835541,53.332996 72.521317,57.373119 69.112747,61.528240 
	C69.112747,58.493038 69.112747,55.453426 69.112747,52.806664 
	C72.636856,50.956398 75.885498,49.239342 79.157806,47.568630 
	C79.310837,47.490501 79.674889,47.825672 79.940659,47.968361 
	C79.788765,48.237816 79.636871,48.507267 79.317375,49.034798 
z"/>
<path fill="#3BA0A7" opacity="1.000000" stroke="none" 
	d="
M42.103477,26.046120 
	C38.634544,27.995897 35.165611,29.945675 31.312340,31.603569 
	C30.068430,30.419344 29.208857,29.527000 28.349281,28.634659 
	C31.284111,26.687918 34.218941,24.741179 37.656784,23.007563 
	C39.474361,24.162498 40.788918,25.104311 42.103477,26.046120 
z"/>
<path fill="#29848F" opacity="1.000000" stroke="none" 
	d="
M12.512327,52.847839 
	C11.162751,53.042686 10.085947,53.027924 8.605526,53.017452 
	C10.261377,49.458218 12.320847,45.894695 15.015310,42.193897 
	C16.483583,42.390148 17.316864,42.723675 18.150143,43.057198 
	C16.361795,46.250874 14.573448,49.444553 12.512327,52.847839 
z"/>
<path fill="#3EA4AB" opacity="1.000000" stroke="none" 
	d="
M82.337280,25.467236 
	C81.070602,26.604155 79.583763,27.478186 78.032135,28.716141 
	C75.063934,27.587440 72.160522,26.094814 68.995667,24.363686 
	C71.564064,23.654282 74.393913,23.183382 77.786026,22.593475 
	C79.604568,23.384426 80.860847,24.294386 82.337280,25.467236 
z"/>
<path fill="#3797A0" opacity="1.000000" stroke="none" 
	d="
M28.071907,28.775612 
	C29.208857,29.527000 30.068430,30.419344 30.975428,31.692543 
	C29.021612,33.674229 27.020374,35.275051 24.363438,36.864433 
	C23.072338,36.028557 22.436937,35.204121 21.801540,34.379688 
	C23.799204,32.558647 25.796869,30.737604 28.071907,28.775612 
z"/>
<path fill="#44A9AF" opacity="1.000000" stroke="none" 
	d="
M42.460838,26.034018 
	C40.788918,25.104311 39.474361,24.162498 38.001015,22.904869 
	C39.345520,21.785795 40.848808,20.982540 42.677879,20.142969 
	C44.542316,21.232471 46.080967,22.358290 47.818718,23.762856 
	C46.284611,24.701704 44.551407,25.361809 42.460838,26.034018 
z"/>
<path fill="#2E8D97" opacity="1.000000" stroke="none" 
	d="
M21.494678,34.554295 
	C22.436937,35.204121 23.072338,36.028557 24.077297,37.008713 
	C22.566051,39.065704 20.685247,40.966980 18.477293,42.962723 
	C17.316864,42.723675 16.483583,42.390148 15.313670,42.024315 
	C17.047297,39.570972 19.117558,37.149937 21.494678,34.554295 
z"/>
<path fill="#19707D" opacity="1.000000" stroke="none" 
	d="
M58.418396,70.034523 
	C57.763226,69.564835 57.442734,68.951454 56.987865,68.018646 
	C58.803314,63.109455 62.946178,64.758392 66.375938,64.365631 
	C63.834988,66.207367 61.294033,68.049095 58.418396,70.034523 
z"/>
<path fill="#5DA4AC" opacity="1.000000" stroke="none" 
	d="
M20.677975,57.017143 
	C22.317575,56.383877 23.763836,56.021980 25.210094,55.660084 
	C25.322376,56.223942 25.434660,56.787800 25.546942,57.351658 
	C23.967279,57.846222 22.387617,58.340782 20.807955,58.835346 
	C20.700180,58.319733 20.592405,57.804123 20.677975,57.017143 
z"/>
</svg>